<svg xmlns="http://www.w3.org/2000/svg" version="1.1" xmlns:xlink="http://www.w3.org/1999/xlink" xmlns:svgjs="http://svgjs.dev/svgjs" width="1500" height="488" viewBox="0 0 1500 488"><g transform="matrix(1,0,0,1,-0.9086595918090552,-1.2035092621686942)"><svg viewBox="0 0 396 129" data-background-color="#ffffff" preserveAspectRatio="xMidYMid meet" height="488" width="1500" xmlns="http://www.w3.org/2000/svg" xmlns:xlink="http://www.w3.org/1999/xlink"><g id="tight-bounds" transform="matrix(1,0,0,1,0.24011386776237487,0.3182831027026225)"><svg viewBox="0 0 395.52 128.36357612922407" height="128.36357612922407" width="395.52"><g><svg viewBox="0 0 395.52 128.36357612922407" height="128.36357612922407" width="395.52"><g><svg viewBox="0 0 395.52 128.36357612922407" height="128.36357612922407" width="395.52"><g id="textblocktransform"><svg viewBox="0 0 395.52 128.36357612922407" height="128.36357612922407" width="395.52" id="textblock"><g><svg viewBox="0 0 395.52 74.0273013081977" height="74.0273013081977" width="395.52"><g transform="matrix(1,0,0,1,0,0)"><svg width="395.52" viewBox="-1.7458399999999905 -21.4799 277.8802299999999 52.00934" height="74.0273013081977" data-palette-color="#ff5c5c"><path d="M4.859-21.48l29.335 5.249c3.084 0.552 5.758 1.376 8.02 2.471 2.255 1.101 4.129 2.395 5.624 3.882 1.495 1.487 2.645 3.104 3.449 4.853 0.803 1.756 1.309 3.566 1.517 5.432 0.208 1.866 0.148 3.717-0.181 5.555v0c-0.417 2.33-1.24 4.526-2.469 6.588-1.237 2.068-2.89 3.831-4.96 5.29-2.076 1.457-4.576 2.466-7.5 3.026-2.931 0.559-6.3 0.498-10.106-0.183v0l-29.334-5.249c0.376-2.1 0.75-4.193 1.124-6.28 0.372-2.08 0.745-4.164 1.118-6.251 0.372-2.08 0.744-4.161 1.117-6.241 0.373-2.087 0.748-4.18 1.124-6.28v0c0.352-1.969 0.706-3.947 1.062-5.936 0.355-1.982 0.708-3.957 1.06-5.926zM27.72-2.761v0l-5.857-1.048c0 0-0.007-0.001-0.02-0.003-0.02-0.004-0.03-0.005-0.03-0.005 0 0-0.001 0.007-0.003 0.019-0.004 0.02-0.008 0.046-0.014 0.079v0l-1.497 8.367c-0.006 0.033-0.01 0.056-0.013 0.069-0.004 0.02-0.005 0.03-0.005 0.03 0 0 0.01 0.002 0.03 0.005 0.013 0.002 0.02 0.004 0.019 0.003v0l5.956 1.066c0.722 0.129 1.392 0.131 2.01 0.004 0.612-0.128 1.15-0.353 1.615-0.676 0.464-0.323 0.852-0.728 1.162-1.214 0.304-0.487 0.506-1.01 0.605-1.568v0c0.141-0.787 0.083-1.543-0.173-2.266-0.263-0.724-0.705-1.338-1.326-1.843-0.622-0.497-1.442-0.837-2.459-1.019zM72.353 27.28l-20.607-2.43c0.281-2.383 0.562-4.767 0.843-7.15 0.281-2.383 0.562-4.767 0.843-7.151 0.281-2.383 0.562-4.767 0.843-7.15 0.281-2.383 0.562-4.767 0.843-7.151v0c0.172-1.457 0.343-2.907 0.513-4.35 0.169-1.437 0.338-2.867 0.506-4.29v0l20.607 2.43c-0.379 3.211-0.756 6.412-1.132 9.603-0.377 3.198-0.755 6.402-1.134 9.614v0c-0.234 1.986-0.469 3.979-0.705 5.978-0.237 2.006-0.473 4.009-0.708 6.009-0.237 2.006-0.474 4.019-0.712 6.038zM112.33-8.189l25.168 1.266c-0.126 2.497-0.251 4.994-0.377 7.49-0.126 2.497-0.251 4.994-0.376 7.491-0.126 2.497-0.251 4.994-0.377 7.49-0.126 2.497-0.251 4.994-0.377 7.491-0.126 2.497-0.251 4.994-0.376 7.49v0l-19.226-0.966c0.174-3.462 0.348-6.925 0.522-10.387 0.174-3.462 0.348-6.925 0.522-10.387v0c0 0 0.001-0.01 0.002-0.03 0.001-0.013-0.006-0.02-0.019-0.021-0.02-0.001-0.037-0.002-0.05-0.002-0.02-0.001-0.03 0.005-0.031 0.018-0.001 0.02-0.002 0.03-0.001 0.03v0l-5.939 20.528-12.734-0.641c-0.658-3.504-1.301-6.991-1.927-10.46-0.627-3.469-1.27-6.939-1.929-10.41v0c0 0 0.001-0.01 0.001-0.029 0.001-0.013-0.006-0.02-0.019-0.021-0.02-0.001-0.03-0.002-0.03-0.002 0 0-0.007 0-0.02-0.001-0.02-0.001-0.03 0.005-0.031 0.018-0.001 0.02-0.002 0.03-0.001 0.03v0c-0.172 3.429-0.345 6.858-0.518 10.287-0.172 3.429-0.346 6.875-0.519 10.337v0l-18.227-0.916c0.126-2.497 0.252-5.004 0.378-7.521 0.126-2.51 0.253-5.024 0.379-7.54 0.126-2.51 0.253-5.024 0.379-7.54 0.126-2.51 0.252-5.014 0.378-7.511v0c0.062-1.232 0.124-2.457 0.185-3.675 0.061-1.212 0.122-2.434 0.184-3.666v0l26.616 1.339c0.396 2.089 0.775 4.168 1.139 6.235 0.363 2.074 0.736 4.156 1.117 6.244 0.376 2.088 0.745 4.176 1.107 6.263v0c-0.002 0.033 0.007 0.057 0.027 0.071 0.012 0.021 0.026 0.021 0.04 0.002 0.021-0.012 0.032-0.035 0.033-0.068v0zM137.547-7.022l31.625-1.267c3.098-0.124 5.822 0.191 8.174 0.944 2.346 0.76 4.307 1.836 5.884 3.227 1.57 1.385 2.775 2.978 3.614 4.779 0.839 1.801 1.298 3.684 1.377 5.65v0c0.084 2.098-0.226 4.102-0.93 6.012-0.711 1.917-1.809 3.639-3.296 5.166-1.493 1.528-3.372 2.76-5.636 3.698-2.264 0.945-4.911 1.478-7.943 1.599v0l-10.741 0.43c0 0-0.006 0.007-0.019 0.021-0.019 0.021-0.035 0.031-0.049 0.032-0.02 0.001-0.029 0.018-0.028 0.051v0l0.252 6.295-20.783 0.832c-0.089-2.232-0.179-4.463-0.268-6.694-0.089-2.232-0.179-4.463-0.268-6.695-0.089-2.232-0.179-4.463-0.269-6.694-0.089-2.232-0.179-4.463-0.268-6.695v0c-0.072-1.799-0.144-3.59-0.215-5.376-0.071-1.779-0.142-3.55-0.213-5.315zM159.241 12.375l4.596-0.184c0.999-0.04 1.835-0.25 2.507-0.631 0.666-0.374 1.154-0.844 1.465-1.41 0.311-0.56 0.455-1.122 0.432-1.688v0c-0.024-0.6-0.213-1.152-0.566-1.659-0.354-0.5-0.87-0.903-1.55-1.209-0.679-0.306-1.535-0.439-2.568-0.397v0l-4.596 0.184c-0.033 0.001-0.056 0.009-0.069 0.022-0.019 0.021-0.028 0.048-0.027 0.082v0l0.274 6.844c0 0 0.01 0 0.03-0.001 0.013-0.001 0.03 0.005 0.051 0.018 0.014 0.019 0.021 0.029 0.021 0.029zM210.616 11.107v0c0.004 0.033 0.016 0.055 0.038 0.066 0.016 0.018 0.04 0.026 0.073 0.022v0l19.374-2.211 1.667 14.605-40.09 4.576c-0.234-2.053-0.469-4.107-0.703-6.16-0.234-2.053-0.47-4.117-0.706-6.19-0.236-2.067-0.471-4.127-0.706-6.18-0.234-2.053-0.469-4.107-0.703-6.16v0c-0.238-2.086-0.477-4.183-0.718-6.289-0.24-2.1-0.479-4.193-0.716-6.279v0l20.616-2.353c0.215 1.888 0.43 3.766 0.643 5.633 0.214 1.875 0.429 3.756 0.644 5.643 0.215 1.888 0.43 3.766 0.643 5.634 0.214 1.875 0.429 3.756 0.644 5.643zM269.068-21.358l2.275 12.393-21.392 3.927c-0.033 0.006-0.049 0.009-0.049 0.009v0 0l0.496 2.705c0.006 0.033 0.01 0.056 0.013 0.069 0.004 0.02 0.005 0.03 0.005 0.029 0 0 0.01-0.002 0.03-0.005 0.013-0.002 0.02-0.004 0.019-0.004v0l20.655-3.792 1.273 6.934-20.655 3.792c0 0-0.007 0.001-0.019 0.004-0.02 0.004-0.028 0.012-0.026 0.025 0.004 0.02 0.008 0.046 0.014 0.079v0l0.506 2.754v0 0c0 0 0.01-0.002 0.029-0.006 0.013-0.002 0.02-0.004 0.02-0.003v0l21.688-3.982 2.184 11.901-41.654 7.647c-0.355-1.934-0.712-3.879-1.07-5.832-0.358-1.947-0.714-3.888-1.069-5.823-0.355-1.934-0.712-3.879-1.071-5.833-0.358-1.947-0.716-3.898-1.074-5.852-0.358-1.947-0.714-3.888-1.069-5.822v0c-0.235-1.279-0.471-2.567-0.71-3.866-0.237-1.292-0.473-2.577-0.708-3.855v0z" opacity="1" transform="matrix(1,0,0,1,0,0)" fill="#ff5c5c" class="wordmark-text-0" data-fill-palette-color="primary" id="text-0"></path></svg></g></svg></g><g transform="matrix(1,0,0,1,0,95.37750752471102)"><svg viewBox="0 0 395.52 32.98606860451306" height="32.98606860451306" width="395.52"><g transform="matrix(1,0,0,1,0,0)"><svg width="395.52" viewBox="2.25 -26.6 326.14 27.200000000000003" height="32.98606860451306" data-palette-color="#ff5f46"><path d="M14.5 0.6L14.5 0.6Q10.8 0.6 8.03-1.13 5.25-2.85 3.75-5.93 2.25-9 2.25-13L2.25-13Q2.25-16.75 3.78-19.85 5.3-22.95 8.15-24.78 11-26.6 14.85-26.6L14.85-26.6Q17.05-26.6 18.73-26.2 20.4-25.8 21.95-25.05L21.95-25.05 20.6-21.25Q19.2-21.95 17.93-22.28 16.65-22.6 15.1-22.6L15.1-22.6Q11.6-22.6 9.22-20.08 6.85-17.55 6.85-13.1L6.85-13.1Q6.85-10.4 7.85-8.2 8.85-6 10.63-4.7 12.4-3.4 14.8-3.4L14.8-3.4Q16.7-3.4 18.05-3.83 19.4-4.25 20.95-5.05L20.95-5.05 22.35-1.25Q20.8-0.4 18.88 0.1 16.95 0.6 14.5 0.6ZM112.33 0.6L112.33 0.6Q109.08 0.6 106.43-1.05 103.78-2.7 102.21-5.73 100.63-8.75 100.63-12.85L100.63-12.85Q100.63-16.75 102.21-19.85 103.78-22.95 106.56-24.78 109.33-26.6 112.93-26.6L112.93-26.6Q115.18-26.6 117.01-25.83 118.83-25.05 120.18-23.9L120.18-23.9 120.18-26 124.28-26 124.28-6.3Q124.28-4.4 125.21-3.83 126.13-3.25 127.23-3.25L127.23-3.25 126.28 0.25Q121.48 0.25 120.48-3.65L120.48-3.65Q119.33-2.05 117.36-0.73 115.38 0.6 112.33 0.6ZM113.33-3.4L113.33-3.4Q115.23-3.4 116.93-4.33 118.63-5.25 119.78-6.65L119.78-6.65 119.78-20.6Q118.43-21.55 116.81-22.13 115.18-22.7 113.38-22.7L113.38-22.7Q110.98-22.7 109.16-21.48 107.33-20.25 106.28-18.07 105.23-15.9 105.23-13L105.23-13Q105.23-10.2 106.28-8.03 107.33-5.85 109.18-4.63 111.03-3.4 113.33-3.4ZM215.51 0.6L215.51 0.6Q212.56 0.6 210.19-0.15 207.81-0.9 206.26-2.1L206.26-2.1 208.16-5.85Q209.46-4.75 211.44-4.03 213.41-3.3 215.66-3.3L215.66-3.3Q218.46-3.3 219.89-4.23 221.31-5.15 221.31-6.6L221.31-6.6Q221.31-7.65 220.79-8.45 220.26-9.25 218.86-10.03 217.46-10.8 214.81-11.7L214.81-11.7Q211.16-12.95 209.34-14.68 207.51-16.4 207.51-19.45L207.51-19.45Q207.51-22.45 210.14-24.53 212.76-26.6 217.41-26.6L217.41-26.6Q219.91-26.6 221.86-26.08 223.81-25.55 225.36-24.75L225.36-24.75 224.11-21.05Q222.76-21.85 221.04-22.35 219.31-22.85 217.21-22.85L217.21-22.85Q214.61-22.85 213.26-21.8 211.91-20.75 211.91-19.5L211.91-19.5Q211.91-18.3 212.96-17.45 214.01-16.6 217.06-15.6L217.06-15.6Q222.01-13.95 223.96-11.95 225.91-9.95 225.91-6.95L225.91-6.95Q225.91-3.45 223.09-1.43 220.26 0.6 215.51 0.6ZM317.59 0.6L317.59 0.6Q311.99 0.6 308.72-2.98 305.44-6.55 305.44-13L305.44-13Q305.44-16.9 306.92-19.98 308.39-23.05 311.04-24.83 313.69-26.6 317.19-26.6L317.19-26.6Q320.94-26.6 323.42-24.98 325.89-23.35 327.14-20.6 328.39-17.85 328.39-14.55L328.39-14.55Q328.39-12.8 328.24-11.15L328.24-11.15 310.04-11.15Q310.49-7.5 312.59-5.45 314.69-3.4 318.14-3.4L318.14-3.4Q320.39-3.4 322.19-3.88 323.99-4.35 325.64-5.1L325.64-5.1 326.69-1.25Q324.89-0.45 322.64 0.08 320.39 0.6 317.59 0.6ZM309.99-14.8L309.99-14.8 324.24-14.8Q324.24-18.6 322.34-20.65 320.44-22.7 317.09-22.7L317.09-22.7Q314.19-22.7 312.29-20.68 310.39-18.65 309.99-14.8Z" opacity="1" transform="matrix(1,0,0,1,0,0)" fill="#ff5f46" class="slogan-text-1" data-fill-palette-color="secondary" id="text-1"></path></svg></g></svg></g></svg></g></svg></g><g></g></svg></g><defs></defs></svg><rect width="395.52" height="128.36357612922407" fill="none" stroke="none" visibility="hidden"></rect></g></svg></g></svg>